<?xml version="1.0" encoding="UTF-8" standalone="no"?><!DOCTYPE svg PUBLIC "-//W3C//DTD SVG 1.1//EN" "http://www.w3.org/Graphics/SVG/1.1/DTD/svg11.dtd"><svg width="100%" height="100%" viewBox="0 0 105 184" version="1.1" xmlns="http://www.w3.org/2000/svg" xmlns:xlink="http://www.w3.org/1999/xlink" xml:space="preserve" style="fill-rule:evenodd;clip-rule:evenodd;stroke-linejoin:round;stroke-miterlimit:1.41421;"><g><path d="M91.949,130.272l0,-83.024c0,-2.021 -1.645,-3.665 -3.665,-3.665l-6.168,0l0,3.189l6.113,0c0.287,0 0.531,0.244 0.531,0.531l0,82.913c0,0.288 -0.244,0.533 -0.531,0.533l-9.833,0l0,3.188l9.888,0c2.02,0 3.665,-1.644 3.665,-3.665" style="fill:#074ea2;fill-rule:nonzero;"/><path d="M54.296,43.582l-21.664,0l0,3.237l8.95,0l0,24.058l3.723,0l0,-24.058l8.991,0l0,-3.237Z" style="fill:#074ea2;fill-rule:nonzero;"/><path d="M61.95,59.095l0,-12.275l6.847,0c4.822,0 7.372,2.087 7.372,6.036c0,4.081 -2.55,6.239 -7.372,6.239l-6.847,0Zm17.739,-6.36c0,-5.817 -3.896,-9.153 -10.69,-9.153l-10.773,0l0,27.295l3.724,0l0,-8.546l7.049,0c6.794,0 10.69,-3.498 10.69,-9.596" style="fill:#074ea2;fill-rule:nonzero;"/><path d="M38.794,99.151l-5.994,0l0,-20.82l5.792,0c5.959,0 10.451,4.492 10.451,10.45c0,6.009 -4.311,10.37 -10.249,10.37m-0.12,-24.058l-9.597,0l0,27.294l9.475,0c8.26,0 14.255,-5.739 14.255,-13.647c0,-7.907 -5.945,-13.647 -14.133,-13.647" style="fill:#074ea2;fill-rule:nonzero;"/><path d="M58.227,75.094l0,27.294l15.994,0l0,-3.277l-12.27,0l0,-24.017l-3.724,0Z" style="fill:#074ea2;fill-rule:nonzero;"/><path d="M32.756,108.666c0,-1.354 -0.977,-2.063 -1.942,-2.063c-1.149,0 -1.983,0.867 -1.983,2.063c0,0.705 0.305,1.297 0.859,1.666l0.368,0.245l-1.393,3.191l1.299,0l2.151,-3.247c0.439,-0.638 0.641,-1.226 0.641,-1.855" style="fill:#074ea2;fill-rule:nonzero;"/><path d="M47.841,133.937l0,-27.334l-9.838,0l0,3.236l6.115,0l0,24.098l3.723,0Z" style="fill:#074ea2;fill-rule:nonzero;"/><path d="M52.087,137.525c-2.055,0 -3.721,1.666 -3.721,3.721c0,2.054 1.666,3.719 3.721,3.719c2.055,0 3.721,-1.665 3.721,-3.719c0,-2.055 -1.666,-3.721 -3.721,-3.721" style="fill:#074ea2;fill-rule:nonzero;"/><path d="M22.854,19.134c-1.174,0 -2.126,0.951 -2.126,2.126c0,1.174 0.952,2.126 2.126,2.126c1.174,0 2.126,-0.952 2.126,-2.126c0,-1.175 -0.952,-2.126 -2.126,-2.126" style="fill:#074ea2;fill-rule:nonzero;"/><path d="M22.854,4.252c1.174,0 2.126,-0.952 2.126,-2.126c0,-1.175 -0.952,-2.126 -2.126,-2.126c-1.174,0 -2.126,0.951 -2.126,2.126c0,1.174 0.952,2.126 2.126,2.126" style="fill:#074ea2;fill-rule:nonzero;"/><path d="M64.965,121.117c4.148,0 6.624,1.856 6.624,4.965c0,3.183 -2.461,5.085 -6.584,5.085c-4.185,0 -6.584,-1.868 -6.584,-5.126c0,-3.083 2.446,-4.924 6.544,-4.924m-5.612,-7.632c0,-2.778 2.113,-4.436 5.652,-4.436c3.514,0 5.612,1.658 5.612,4.436c0,2.779 -2.098,4.438 -5.612,4.438c-3.539,0 -5.652,-1.659 -5.652,-4.438m5.652,20.916c6.507,0 10.548,-3.033 10.548,-7.915c0,-3.196 -2.007,-5.798 -5.369,-6.958l-0.638,-0.22l0.616,-0.274c2.526,-1.122 3.973,-3.233 3.973,-5.792c0,-4.383 -3.514,-7.105 -9.17,-7.105c-5.632,0 -9.131,2.645 -9.131,6.903c0,2.609 1.537,4.795 4.217,5.995l0.623,0.279l-0.647,0.215c-3.488,1.162 -5.57,3.793 -5.57,7.038c0,4.832 4.042,7.834 10.548,7.834" style="fill:#074ea2;fill-rule:nonzero;"/><path d="M12.225,47.247l0,82.969c0,2.077 1.645,3.72 3.665,3.72l21.581,0l0,-3.188l-21.525,0c-0.288,0 -0.532,-0.244 -0.532,-0.532l0,-82.913c0,-0.287 0.244,-0.532 0.532,-0.532l12.756,0l0,-3.189l-12.756,0c-2.076,0 -3.721,1.644 -3.721,3.665" style="fill:#074ea2;fill-rule:nonzero;"/><path d="M13.288,158.917l0,10.63l-1.063,0c-4.983,0 -9.036,-4.053 -9.036,-9.035c0,-4.983 4.053,-9.035 9.036,-9.035l79.724,0c3.228,0 6.277,-1.255 8.583,-3.534l0.453,-0.446l0,13.015c0,4.982 -4.053,9.035 -9.036,9.035l-59.527,0l0,-10.63l-19.134,0Zm15.944,21.26l-4.783,0l0,-8.77l-3.189,0l0,8.77l-4.784,0l0,-18.072l12.756,0l0,18.072Zm-17.007,-145.63l79.724,0c4.983,0 9.036,4.054 9.036,9.035l0,95.669c0,4.983 -4.053,9.036 -9.036,9.036l-79.724,0c-3.22,0 -6.263,1.25 -8.568,3.52l-0.14,0.136l-0.172,-0.091c-0.142,-0.077 -0.142,-0.077 -0.145,-17.117l-0.011,-91.153c0,-4.981 4.053,-9.035 9.036,-9.035m4.251,-16.686l6.378,-4.252l6.378,4.252l0,13.497l-12.756,0l0,-13.497Zm87.698,142.651l0,-116.93c0,-6.74 -5.484,-12.224 -12.225,-12.224l-59.527,0l0,-15.204l-9.568,-6.378l-9.566,6.378l0,15.204l-1.063,0c-6.742,0 -12.225,5.484 -12.225,12.224l0,116.93c0.001,6.741 5.484,12.224 12.225,12.224l1.063,0l0,10.63l19.134,0l0,-10.63l59.527,0c6.741,0 12.225,-5.483 12.225,-12.224" style="fill:#074ea2;fill-rule:nonzero;"/></g></svg>