<?xml version="1.0" encoding="UTF-8" standalone="no"?><!DOCTYPE svg PUBLIC "-//W3C//DTD SVG 1.1//EN" "http://www.w3.org/Graphics/SVG/1.1/DTD/svg11.dtd"><svg width="100%" height="100%" viewBox="0 0 435 765" version="1.1" xmlns="http://www.w3.org/2000/svg" xmlns:xlink="http://www.w3.org/1999/xlink" xml:space="preserve" style="fill-rule:evenodd;clip-rule:evenodd;stroke-linejoin:round;stroke-miterlimit:1.41421;"><g><path d="M383.123,542.798l0,-345.934c0,-8.422 -6.85,-15.272 -15.272,-15.272l-25.697,0l0,13.287l25.469,0c1.2,0 2.212,1.016 2.212,2.216l0,345.472c0,1.2 -1.012,2.216 -2.212,2.216l-40.969,0l0,13.287l41.197,0c8.422,0 15.272,-6.853 15.272,-15.272" style="fill:#fff;fill-rule:nonzero;"/><path d="M226.235,181.592l-90.269,0l0,13.488l37.291,0l0,100.24l15.512,0l0,-100.24l37.466,0l0,-13.488Z" style="fill:#fff;fill-rule:nonzero;"/><path d="M258.126,246.225l0,-51.143l28.528,0c20.097,0 30.719,8.696 30.719,25.15c0,17.003 -10.622,25.993 -30.719,25.993l-28.528,0Zm73.912,-26.5c0,-24.234 -16.234,-38.134 -44.543,-38.134l-44.882,0l0,113.728l15.513,0l0,-35.609l29.369,0c28.309,0 44.543,-14.575 44.543,-39.985" style="fill:#fff;fill-rule:nonzero;"/><path d="M161.643,413.129l-24.975,0l0,-86.753l24.131,0c24.828,0 43.547,18.719 43.547,43.544c0,25.037 -17.959,43.209 -42.703,43.209m-0.503,-100.241l-39.984,0l0,113.725l39.478,0c34.412,0 59.393,-23.912 59.393,-56.862c0,-32.95 -24.765,-56.863 -58.887,-56.863" style="fill:#fff;fill-rule:nonzero;"/><path d="M242.614,312.888l0,113.728l66.643,0l0,-13.659l-51.131,0l0,-100.069l-15.512,0Z" style="fill:#fff;fill-rule:nonzero;"/><path d="M136.484,452.774c0,-5.646 -4.072,-8.6 -8.093,-8.6c-4.788,0 -8.26,3.616 -8.26,8.6c0,2.938 1.269,5.404 3.575,6.944l1.535,1.019l-5.804,13.294l5.41,0l8.969,-13.525c1.821,-2.663 2.668,-5.113 2.668,-7.732" style="fill:#fff;fill-rule:nonzero;"/><path d="M199.338,558.069l0,-113.894l-40.993,0l0,13.485l25.481,0l0,100.409l15.512,0Z" style="fill:#fff;fill-rule:nonzero;"/><path d="M217.029,573.02c-8.562,0 -15.503,6.94 -15.503,15.5c0,8.562 6.941,15.503 15.503,15.503c8.563,0 15.5,-6.941 15.5,-15.503c0,-8.56 -6.937,-15.5 -15.5,-15.5" style="fill:#fff;fill-rule:nonzero;"/><path d="M95.228,79.724c-4.891,0 -8.856,3.966 -8.856,8.857c0,4.89 3.965,8.859 8.856,8.859c4.89,0 8.859,-3.969 8.859,-8.859c0,-4.891 -3.969,-8.857 -8.859,-8.857" style="fill:#fff;fill-rule:nonzero;"/><path d="M95.228,17.716c4.894,0 8.859,-3.969 8.859,-8.86c0,-4.89 -3.965,-8.856 -8.859,-8.856c-4.891,0 -8.856,3.966 -8.856,8.856c0,4.891 3.965,8.86 8.856,8.86" style="fill:#fff;fill-rule:nonzero;"/><path d="M270.687,504.654c17.284,0 27.603,7.734 27.603,20.684c0,13.266 -10.256,21.188 -27.434,21.188c-17.435,0 -27.435,-7.784 -27.435,-21.359c0,-12.844 10.194,-20.513 27.266,-20.513m-23.381,-31.8c0,-11.575 8.803,-18.487 23.55,-18.487c14.64,0 23.384,6.912 23.384,18.487c0,11.578 -8.744,18.491 -23.384,18.491c-14.747,0 -23.55,-6.913 -23.55,-18.491m23.55,87.15c27.109,0 43.95,-12.637 43.95,-32.978c0,-13.319 -8.366,-24.156 -22.372,-28.991l-2.66,-0.915l2.572,-1.144c10.519,-4.675 16.553,-13.475 16.553,-24.134c0,-18.263 -14.643,-29.607 -38.212,-29.607c-23.466,0 -38.044,11.022 -38.044,28.763c0,10.875 6.403,19.978 17.569,24.981l2.597,1.163l-2.697,0.896c-14.531,4.844 -23.206,15.804 -23.206,29.325c0,20.135 16.84,32.641 43.95,32.641" style="fill:#fff;fill-rule:nonzero;"/><path d="M50.937,196.863l0,345.703c0,8.653 6.85,15.503 15.272,15.503l89.919,0l0,-13.287l-89.691,0c-1.2,0 -2.212,-1.016 -2.212,-2.216l0,-345.472c0,-1.2 1.012,-2.215 2.212,-2.215l53.15,0l0,-13.288l-53.15,0c-8.65,0 -15.5,6.853 -15.5,15.272" style="fill:#fff;fill-rule:nonzero;"/><path d="M55.366,662.152l0,44.294l-4.429,0c-20.762,0 -37.65,-16.888 -37.65,-37.65c0,-20.759 16.888,-37.647 37.65,-37.647l332.185,0c13.45,0 26.15,-5.228 35.765,-14.719l1.885,-1.862l0,54.228c0,20.762 -16.888,37.65 -37.65,37.65l-248.031,0l0,-44.294l-79.725,0Zm66.437,88.585l-19.931,0l0,-36.541l-13.288,0l0,36.541l-19.931,0l0,-75.297l53.15,0l0,75.297Zm-70.866,-606.791l332.185,0c20.762,0 37.65,16.887 37.65,37.647l0,398.619c0,20.762 -16.888,37.65 -37.65,37.65l-332.185,0c-13.415,0 -26.096,5.206 -35.7,14.665l-0.581,0.569l-0.719,-0.384c-0.59,-0.316 -0.59,-0.316 -0.603,-71.316l-0.047,-379.803c0,-20.76 16.888,-37.647 37.65,-37.647m17.716,-69.525l26.575,-17.716l26.575,17.716l0,56.237l-53.15,0l0,-56.237Zm365.406,594.375l0,-487.203c0,-28.088 -22.847,-50.935 -50.937,-50.935l-248.031,0l0,-63.35l-39.863,-26.575l-39.862,26.575l0,63.35l-4.429,0c-28.087,0 -50.937,22.847 -50.937,50.935l0,487.206c0.003,28.084 22.853,50.934 50.937,50.934l4.429,0l0,44.291l79.725,0l0,-44.291l248.031,0c28.09,0 50.937,-22.85 50.937,-50.937" style="fill:#fff;fill-rule:nonzero;"/></g></svg>