<?xml version="1.0" encoding="UTF-8" standalone="no"?><!DOCTYPE svg PUBLIC "-//W3C//DTD SVG 1.1//EN" "http://www.w3.org/Graphics/SVG/1.1/DTD/svg11.dtd"><svg width="100%" height="100%" viewBox="0 0 579 1019" version="1.1" xmlns="http://www.w3.org/2000/svg" xmlns:xlink="http://www.w3.org/1999/xlink" xml:space="preserve" xmlns:serif="http://www.serif.com/" style="fill-rule:evenodd;clip-rule:evenodd;stroke-linejoin:round;stroke-miterlimit:1.41421;"><circle cx="289.372" cy="784.695" r="20.669" style="fill:#fff;"/><circle cx="126.968" cy="118.109" r="11.81" style="fill:#fff;"/><path d="M126.97,23.621c6.521,0 11.809,-5.288 11.809,-11.809c0,-6.525 -5.288,-11.812 -11.809,-11.812c-6.52,0 -11.808,5.287 -11.808,11.812c0,6.521 5.288,11.809 11.808,11.809" style="fill:#fff;fill-rule:nonzero;"/><path d="M73.821,882.874l0,59.058l-5.904,0c-27.684,0 -50.2,-22.517 -50.2,-50.2c0,-27.679 22.516,-50.196 50.2,-50.196l442.912,0c17.933,0 34.867,-6.971 47.683,-19.625l2.517,-2.483l0,72.304c0,27.683 -22.521,50.2 -50.2,50.2l-330.708,0l0,-59.058l-106.3,0Zm88.583,118.112l-26.575,0l0,-48.721l-17.717,0l0,48.721l-26.575,0l0,-100.396l70.867,0l0,100.396Zm-94.487,-809.054l442.912,0c27.679,0 50.2,22.517 50.2,50.196l0,531.492c0,27.683 -22.521,50.2 -50.2,50.2l-442.912,0c-17.888,0 -34.796,6.941 -47.6,19.554l-0.775,0.758l-0.959,-0.512c-0.787,-0.421 -0.787,-0.421 -0.804,-95.088l-0.062,-506.404c0,-27.679 22.516,-50.196 50.2,-50.196m23.62,-92.7l35.434,-23.621l35.433,23.621l0,74.983l-70.867,0l0,-74.983Zm487.209,792.5l0,-649.604c0,-37.45 -30.467,-67.913 -67.917,-67.913l-330.708,0l0,-84.466l-53.15,-35.434l-53.15,35.434l0,84.466l-5.904,0c-37.45,0 -67.917,30.463 -67.917,67.913l0,649.608c0.004,37.446 30.471,67.913 67.917,67.913l5.904,0l0,59.054l106.3,0l0,-59.054l330.708,0c37.45,0 67.917,-30.467 67.917,-67.917" style="fill:#fff;fill-rule:nonzero;"/><path d="M67.912,368.835l43.317,0l0,118.959l18.004,0l0,-118.959l43.504,0l0,-16.866l-104.825,0l0,16.866Z" style="fill:#fff;fill-rule:nonzero;"/><path d="M211.441,368.835l32.85,0c23.521,0 36.471,10.505 36.471,29.571c0,25.071 -19.834,30.329 -36.471,30.329l-32.85,0l0,-59.9Zm33.421,-16.866l-51.459,0l0,135.825l18.038,0l0,-42.184l33.421,0c33.916,0 53.366,-17.341 53.366,-47.583c0,-29.271 -19.45,-46.058 -53.366,-46.058" style="fill:#fff;fill-rule:nonzero;"/><path d="M365.925,470.925l-29.021,0l0,-102.088l28.45,0c29.15,0 51.983,22.505 51.983,51.234c0,28.991 -22.1,50.854 -51.412,50.854m69.608,-51.042c0,-38.716 -30.008,-67.916 -69.796,-67.916l-46.841,0l0,135.829l46.266,0c40.117,0 70.371,-29.196 70.371,-67.913" style="fill:#fff;fill-rule:nonzero;"/><path d="M459.659,458.661c0,10.008 2.662,17.708 7.904,22.887c4.537,4.479 10.925,6.838 18.483,6.838c8.146,0.029 16.213,-2.475 23.871,-7.659l0.913,-0.612l-5.138,-14.008l-1.45,0.845c-5.283,3.096 -10.433,4.759 -15.25,4.938c-8.229,0 -11.896,-4.842 -11.896,-15.7l0,-104.221l-17.437,0l-14.442,0l0,14.4l14.442,0l0,92.292Z" style="fill:#fff;fill-rule:nonzero;"/><path d="M132.705,581.92c11.438,-10.221 25.071,-25.417 25.071,-39.784c0,-18.658 -17.091,-30.721 -43.546,-30.721c-16.425,0 -33.604,6.13 -47.129,16.817l-0.962,0.758l8.133,14.805l1.354,-1.134c10.9,-9.137 24.671,-14.591 36.834,-14.591c16.212,0 25.887,6.066 25.887,16.229c0,6.708 -6.804,16.804 -18.217,27.029l-51.733,47.737l-0.467,0.43l0,14.462l97.717,0l0,-17.442l-72.35,0l39.408,-34.595Z" style="fill:#fff;fill-rule:nonzero;"/><path d="M244.315,527.702c21.266,0 36.112,18.333 36.112,44.591c0,26.488 -14.846,44.984 -36.112,44.984c-21.146,0 -35.917,-18.496 -35.917,-44.984c0,-26.258 14.771,-44.591 35.917,-44.591m0.2,-16.288c-31.892,0 -54.167,25.038 -54.167,60.879c0,35.959 22.275,61.071 54.167,61.071c31.77,0 53.966,-25.112 53.966,-61.071c0,-35.841 -22.196,-60.879 -53.966,-60.879" style="fill:#fff;fill-rule:nonzero;"/><path d="M318.898,542.792l28.475,-12.5l0,103.662l18.441,0l0,-121.125l-18.441,0l-28.475,16.667l0,13.296Z" style="fill:#fff;fill-rule:nonzero;"/><path d="M458.556,617.275c-19.783,0 -31.129,-7.404 -31.129,-20.317c0,-12.154 11.571,-19.408 30.95,-19.408c19.491,0 31.125,7.313 31.125,19.558c0,12.63 -11.567,20.167 -30.946,20.167m-26.342,-72.446c0,-10.887 9.6,-17.129 26.342,-17.129c16.629,0 26.162,6.242 26.162,17.129c0,10.884 -9.533,17.121 -26.162,17.121c-16.492,0 -26.342,-6.4 -26.342,-17.121m52.288,23.271c12.696,-5.233 19.629,-14.254 19.629,-25.7c0,-19.108 -17.538,-30.983 -45.763,-30.983c-28.108,0 -45.566,11.675 -45.566,30.479c0,11.637 7.191,20.837 20.366,26.196c-17.133,5.333 -26.87,16.325 -26.87,30.571c0,21.404 20.029,34.704 52.266,34.704c32.238,0 52.263,-13.363 52.263,-34.871c0,-14.133 -9.538,-25.063 -26.325,-30.396" style="fill:#fff;fill-rule:nonzero;"/><path d="M85.633,334.251l0,-71.454c0,-1.6 1.35,-2.955 2.95,-2.955l401.579,0c1.6,0 2.95,1.355 2.95,2.955l0,71.454l17.717,0l0,-71.763c0,-11.225 -9.137,-20.362 -20.362,-20.362l-401.884,0c-11.533,0 -20.666,9.137 -20.666,20.362l0,71.763l17.716,0Z" style="fill:#fff;fill-rule:nonzero;"/><path d="M493.112,651.97l0,71.454c0,1.6 -1.35,2.954 -2.95,2.954l-401.579,0c-1.6,0 -2.95,-1.354 -2.95,-2.954l0,-71.454l-17.717,0l0,71.766c0,11.225 9.138,20.359 20.363,20.359l401.883,0c11.533,0 20.667,-9.134 20.667,-20.359l0,-71.766l-17.717,0Z" style="fill:#fff;fill-rule:nonzero;"/></svg>